<?xml version="1.0" standalone="no"?>
<!DOCTYPE svg PUBLIC "-//W3C//DTD SVG 20010904//EN"
 "http://www.w3.org/TR/2001/REC-SVG-20010904/DTD/svg10.dtd">
<svg version="1.0" xmlns="http://www.w3.org/2000/svg"
 width="400.000000pt" height="400.000000pt" viewBox="0 0 400.000000 400.000000"
 preserveAspectRatio="xMidYMid meet">
<metadata>
Created by potrace 1.11, written by Peter Selinger 2001-2013
</metadata>
<g transform="translate(0.000000,400.000000) scale(0.100000,-0.100000)"
fill="#000000" stroke="none">
<path d="M1960 3722 c-232 -9 -473 -39 -680 -83 -90 -20 -384 -112 -450 -142
-89 -40 -244 -150 -314 -222 -68 -70 -216 -284 -216 -312 0 -3 -6 -19 -14 -36
-46 -101 -56 -134 -81 -287 -36 -212 -10 -390 93 -645 31 -77 68 -161 83 -187
77 -131 291 -338 446 -432 131 -79 137 -87 232 -281 79 -160 93 -196 121 -320
63 -271 50 -553 -35 -757 -7 -17 38 -18 849 -18 818 0 856 1 856 18 0 10 -4
22 -9 27 -4 6 -34 69 -65 142 -31 73 -63 145 -71 160 -8 15 -15 31 -15 35 0 4
-11 31 -24 60 -13 29 -38 87 -56 128 -17 41 -38 89 -45 105 -7 17 -23 53 -35
80 -13 28 -33 77 -46 110 -12 33 -29 74 -38 90 -9 17 -16 34 -16 39 0 13 98
-1 230 -34 118 -29 237 -43 507 -61 160 -10 200 -10 235 1 118 37 132 60 133
220 0 63 -2 156 -5 206 -5 87 -4 92 23 131 32 46 31 88 -3 132 -18 24 -17 25
11 54 36 35 38 83 8 152 -18 41 -19 51 -8 78 21 51 41 75 94 109 78 51 95 74
95 130 0 50 -40 103 -144 190 -50 43 -107 92 -127 110 -20 18 -64 58 -98 88
-109 97 -142 157 -170 312 -11 64 -66 180 -141 303 -27 44 -56 94 -64 110 -9
17 -41 67 -73 111 -161 228 -287 311 -543 360 -89 17 -318 31 -430 26z"/>
</g>
</svg>
